<svg width="177" height="82" viewBox="0 0 177 82" fill="none" xmlns="http://www.w3.org/2000/svg">
<path d="M29.3368 15.68V22.72H18.2168V26.64H26.2168V33.32H18.2168V44H9.33678V15.68H29.3368ZM47.1446 15.64L49.8246 20.48L45.3846 21.92L49.8246 23.28L46.9046 28.36L43.4246 24.92L44.5446 29.6H38.9846L40.1046 24.92L36.7046 28.4L33.7046 23.24L38.1446 21.8L33.7846 20.52L36.4646 15.68L40.1446 19L38.9046 14.24H44.5846L43.4246 19L47.1446 15.64ZM69.5665 15.64L72.2465 20.48L67.8065 21.92L72.2465 23.28L69.3265 28.36L65.8465 24.92L66.9665 29.6H61.4065L62.5265 24.92L59.1265 28.4L56.1265 23.24L60.5665 21.8L56.2065 20.52L58.8865 15.68L62.5665 19L61.3265 14.24H67.0065L65.8465 19L69.5665 15.64ZM91.6283 44L86.0683 35V44H77.1883V14.4H86.0683V29.88L91.7083 21.44H102.028L93.5883 32.8L102.228 44H91.6283ZM116.18 13.8L115.14 32.76H107.54L106.5 13.8H116.18ZM111.34 44.32C109.793 44.32 108.553 43.9067 107.62 43.08C106.686 42.2533 106.22 41.2133 106.22 39.96C106.22 38.68 106.686 37.6267 107.62 36.8C108.553 35.9467 109.793 35.52 111.34 35.52C112.86 35.52 114.086 35.9467 115.02 36.8C115.953 37.6267 116.42 38.68 116.42 39.96C116.42 41.2133 115.953 42.2533 115.02 43.08C114.086 43.9067 112.86 44.32 111.34 44.32ZM138.223 21.28C140.809 21.28 142.823 22.1467 144.263 23.88C145.729 25.6133 146.463 27.96 146.463 30.92V44H137.623V32.04C137.623 30.9733 137.329 30.1333 136.743 29.52C136.183 28.88 135.423 28.56 134.463 28.56C133.476 28.56 132.703 28.88 132.143 29.52C131.583 30.1333 131.303 30.9733 131.303 32.04V44H122.423V21.44H131.303V24.88C131.996 23.8133 132.916 22.9467 134.063 22.28C135.236 21.6133 136.623 21.28 138.223 21.28ZM158.433 21.16C159.9 21.16 161.167 21.4667 162.233 22.08C163.3 22.6667 164.113 23.48 164.673 24.52V21.44H173.513V43.6C173.513 45.7067 173.127 47.6267 172.353 49.36C171.58 51.0933 170.327 52.48 168.593 53.52C166.887 54.56 164.687 55.08 161.993 55.08C158.367 55.08 155.487 54.2267 153.353 52.52C151.247 50.84 150.047 48.5467 149.753 45.64H158.473C158.713 46.8133 159.673 47.4 161.353 47.4C162.393 47.4 163.207 47.1333 163.793 46.6C164.38 46.0667 164.673 45.0667 164.673 43.6V40.92C164.113 41.96 163.3 42.7867 162.233 43.4C161.167 43.9867 159.9 44.28 158.433 44.28C156.673 44.28 155.087 43.8267 153.673 42.92C152.26 41.9867 151.14 40.6533 150.313 38.92C149.513 37.16 149.113 35.0933 149.113 32.72C149.113 30.3467 149.513 28.2933 150.313 26.56C151.14 24.8 152.26 23.4667 153.673 22.56C155.087 21.6267 156.673 21.16 158.433 21.16ZM164.673 32.72C164.673 31.52 164.367 30.5867 163.753 29.92C163.14 29.2533 162.353 28.92 161.393 28.92C160.433 28.92 159.647 29.2533 159.033 29.92C158.42 30.5867 158.113 31.52 158.113 32.72C158.113 33.92 158.42 34.8533 159.033 35.52C159.647 36.1867 160.433 36.52 161.393 36.52C162.353 36.52 163.14 36.1867 163.753 35.52C164.367 34.8533 164.673 33.92 164.673 32.72Z" fill="#E4FF3D"/>
<path d="M22 15.68V22.72H10.88V26.64H18.88V33.32H10.88V44H2V15.68H22ZM39.8078 15.64L42.4878 20.48L38.0478 21.92L42.4878 23.28L39.5678 28.36L36.0878 24.92L37.2078 29.6H31.6478L32.7678 24.92L29.3678 28.4L26.3678 23.24L30.8078 21.8L26.4478 20.52L29.1278 15.68L32.8078 19L31.5678 14.24H37.2478L36.0878 19L39.8078 15.64ZM62.2297 15.64L64.9097 20.48L60.4697 21.92L64.9097 23.28L61.9897 28.36L58.5097 24.92L59.6297 29.6H54.0697L55.1897 24.92L51.7897 28.4L48.7897 23.24L53.2297 21.8L48.8697 20.52L51.5497 15.68L55.2297 19L53.9897 14.24H59.6697L58.5097 19L62.2297 15.64ZM84.2916 44L78.7316 35V44H69.8516V14.4H78.7316V29.88L84.3716 21.44H94.6916L86.2516 32.8L94.8916 44H84.2916ZM108.843 13.8L107.803 32.76H100.203L99.1628 13.8H108.843ZM104.003 44.32C102.456 44.32 101.216 43.9067 100.283 43.08C99.3495 42.2533 98.8828 41.2133 98.8828 39.96C98.8828 38.68 99.3495 37.6267 100.283 36.8C101.216 35.9467 102.456 35.52 104.003 35.52C105.523 35.52 106.749 35.9467 107.683 36.8C108.616 37.6267 109.083 38.68 109.083 39.96C109.083 41.2133 108.616 42.2533 107.683 43.08C106.749 43.9067 105.523 44.32 104.003 44.32ZM130.886 21.28C133.473 21.28 135.486 22.1467 136.926 23.88C138.393 25.6133 139.126 27.96 139.126 30.92V44H130.286V32.04C130.286 30.9733 129.993 30.1333 129.406 29.52C128.846 28.88 128.086 28.56 127.126 28.56C126.139 28.56 125.366 28.88 124.806 29.52C124.246 30.1333 123.966 30.9733 123.966 32.04V44H115.086V21.44H123.966V24.88C124.659 23.8133 125.579 22.9467 126.726 22.28C127.899 21.6133 129.286 21.28 130.886 21.28ZM151.097 21.16C152.563 21.16 153.83 21.4667 154.897 22.08C155.963 22.6667 156.777 23.48 157.337 24.52V21.44H166.177V43.6C166.177 45.7067 165.79 47.6267 165.017 49.36C164.243 51.0933 162.99 52.48 161.257 53.52C159.55 54.56 157.35 55.08 154.657 55.08C151.03 55.08 148.15 54.2267 146.017 52.52C143.91 50.84 142.71 48.5467 142.417 45.64H151.137C151.377 46.8133 152.337 47.4 154.017 47.4C155.057 47.4 155.87 47.1333 156.457 46.6C157.043 46.0667 157.337 45.0667 157.337 43.6V40.92C156.777 41.96 155.963 42.7867 154.897 43.4C153.83 43.9867 152.563 44.28 151.097 44.28C149.337 44.28 147.75 43.8267 146.337 42.92C144.923 41.9867 143.803 40.6533 142.977 38.92C142.177 37.16 141.777 35.0933 141.777 32.72C141.777 30.3467 142.177 28.2933 142.977 26.56C143.803 24.8 144.923 23.4667 146.337 22.56C147.75 21.6267 149.337 21.16 151.097 21.16ZM157.337 32.72C157.337 31.52 157.03 30.5867 156.417 29.92C155.803 29.2533 155.017 28.92 154.057 28.92C153.097 28.92 152.31 29.2533 151.697 29.92C151.083 30.5867 150.777 31.52 150.777 32.72C150.777 33.92 151.083 34.8533 151.697 35.52C152.31 36.1867 153.097 36.52 154.057 36.52C155.017 36.52 155.803 36.1867 156.417 35.52C157.03 34.8533 157.337 33.92 157.337 32.72Z" fill="#FB9860"/>
<path d="M16.256 74.126C15.428 74.126 14.696 73.982 14.06 73.694C13.436 73.406 12.944 73.004 12.584 72.488C12.224 71.972 12.032 71.396 12.008 70.76H13.34C13.4 71.372 13.67 71.912 14.15 72.38C14.63 72.836 15.332 73.064 16.256 73.064C17.108 73.064 17.78 72.848 18.272 72.416C18.776 71.972 19.028 71.414 19.028 70.742C19.028 70.202 18.89 69.77 18.614 69.446C18.338 69.11 17.996 68.864 17.588 68.708C17.18 68.54 16.616 68.36 15.896 68.168C15.056 67.94 14.39 67.718 13.898 67.502C13.406 67.286 12.986 66.95 12.638 66.494C12.29 66.038 12.116 65.42 12.116 64.64C12.116 63.992 12.284 63.416 12.62 62.912C12.956 62.396 13.43 61.994 14.042 61.706C14.654 61.418 15.356 61.274 16.148 61.274C17.312 61.274 18.248 61.562 18.956 62.138C19.676 62.702 20.09 63.434 20.198 64.334H18.83C18.746 63.818 18.464 63.362 17.984 62.966C17.504 62.558 16.856 62.354 16.04 62.354C15.284 62.354 14.654 62.558 14.15 62.966C13.646 63.362 13.394 63.908 13.394 64.604C13.394 65.132 13.532 65.558 13.808 65.882C14.084 66.206 14.426 66.452 14.834 66.62C15.254 66.788 15.818 66.968 16.526 67.16C17.342 67.388 18.002 67.616 18.506 67.844C19.01 68.06 19.436 68.396 19.784 68.852C20.132 69.308 20.306 69.92 20.306 70.688C20.306 71.276 20.15 71.834 19.838 72.362C19.526 72.89 19.064 73.316 18.452 73.64C17.84 73.964 17.108 74.126 16.256 74.126ZM28.0508 74L24.0008 69.59V74H22.7408V60.68H24.0008V68.564L27.9608 64.172H29.7248L25.0628 69.068L29.7608 74H28.0508ZM40.2812 68.582C40.2812 69.014 40.2692 69.344 40.2452 69.572H32.0912C32.1272 70.316 32.3072 70.952 32.6312 71.48C32.9552 72.008 33.3812 72.41 33.9092 72.686C34.4372 72.95 35.0132 73.082 35.6372 73.082C36.4532 73.082 37.1372 72.884 37.6892 72.488C38.2532 72.092 38.6252 71.558 38.8052 70.886H40.1372C39.8972 71.846 39.3812 72.632 38.5892 73.244C37.8092 73.844 36.8252 74.144 35.6372 74.144C34.7132 74.144 33.8852 73.94 33.1532 73.532C32.4212 73.112 31.8452 72.524 31.4252 71.768C31.0172 71 30.8132 70.106 30.8132 69.086C30.8132 68.066 31.0172 67.172 31.4252 66.404C31.8332 65.636 32.4032 65.048 33.1352 64.64C33.8672 64.232 34.7012 64.028 35.6372 64.028C36.5732 64.028 37.3892 64.232 38.0852 64.64C38.7932 65.048 39.3332 65.6 39.7052 66.296C40.0892 66.98 40.2812 67.742 40.2812 68.582ZM39.0032 68.546C39.0152 67.814 38.8652 67.19 38.5532 66.674C38.2532 66.158 37.8392 65.768 37.3112 65.504C36.7832 65.24 36.2072 65.108 35.5832 65.108C34.6472 65.108 33.8492 65.408 33.1892 66.008C32.5292 66.608 32.1632 67.454 32.0912 68.546H39.0032ZM44.2245 65.234V71.336C44.2245 71.936 44.3385 72.35 44.5665 72.578C44.7945 72.806 45.1965 72.92 45.7725 72.92H46.9245V74H45.5745C44.6865 74 44.0265 73.796 43.5945 73.388C43.1625 72.968 42.9465 72.284 42.9465 71.336V65.234H41.5785V64.172H42.9465V61.706H44.2245V64.172H46.9245V65.234H44.2245ZM48.4265 69.086C48.4265 68.066 48.6305 67.178 49.0385 66.422C49.4465 65.654 50.0105 65.066 50.7305 64.658C51.4505 64.238 52.2725 64.028 53.1965 64.028C54.4085 64.028 55.4045 64.328 56.1845 64.928C56.9765 65.528 57.4865 66.344 57.7145 67.376H56.3645C56.1965 66.668 55.8305 66.116 55.2665 65.72C54.7145 65.312 54.0245 65.108 53.1965 65.108C52.5365 65.108 51.9425 65.258 51.4145 65.558C50.8865 65.858 50.4665 66.308 50.1545 66.908C49.8545 67.496 49.7045 68.222 49.7045 69.086C49.7045 69.95 49.8545 70.682 50.1545 71.282C50.4665 71.882 50.8865 72.332 51.4145 72.632C51.9425 72.932 52.5365 73.082 53.1965 73.082C54.0245 73.082 54.7145 72.884 55.2665 72.488C55.8305 72.08 56.1965 71.516 56.3645 70.796H57.7145C57.4865 71.804 56.9765 72.614 56.1845 73.226C55.3925 73.838 54.3965 74.144 53.1965 74.144C52.2725 74.144 51.4505 73.94 50.7305 73.532C50.0105 73.112 49.4465 72.524 49.0385 71.768C48.6305 71 48.4265 70.106 48.4265 69.086ZM64.7216 63.992C65.4656 63.992 66.1316 64.148 66.7196 64.46C67.3196 64.772 67.7876 65.252 68.1236 65.9C68.4716 66.536 68.6456 67.316 68.6456 68.24V74H67.4036V68.384C67.4036 67.316 67.1336 66.5 66.5936 65.936C66.0656 65.372 65.3396 65.09 64.4156 65.09C63.4676 65.09 62.7116 65.39 62.1476 65.99C61.5836 66.59 61.3016 67.472 61.3016 68.636V74H60.0416V60.68H61.3016V65.846C61.6136 65.258 62.0696 64.802 62.6696 64.478C63.2816 64.154 63.9656 63.992 64.7216 63.992ZM79.5322 64.172L73.7002 78.626H72.3862L74.2942 73.946L70.2622 64.172H71.6482L74.9962 72.56L78.2362 64.172H79.5322ZM88.6028 61.418V62.462H85.1108V74H83.8508V62.462H80.3408V61.418H88.6028ZM95.2723 63.992C96.0163 63.992 96.6823 64.148 97.2703 64.46C97.8703 64.772 98.3383 65.252 98.6743 65.9C99.0223 66.536 99.1963 67.316 99.1963 68.24V74H97.9543V68.384C97.9543 67.316 97.6843 66.5 97.1443 65.936C96.6163 65.372 95.8903 65.09 94.9663 65.09C94.0183 65.09 93.2623 65.39 92.6983 65.99C92.1343 66.59 91.8523 67.472 91.8523 68.636V74H90.5923V60.68H91.8523V65.846C92.1643 65.258 92.6203 64.802 93.2203 64.478C93.8323 64.154 94.5163 63.992 95.2723 63.992ZM106.285 74.144C105.361 74.144 104.527 73.94 103.783 73.532C103.051 73.112 102.469 72.524 102.037 71.768C101.617 71 101.407 70.106 101.407 69.086C101.407 68.066 101.623 67.178 102.055 66.422C102.487 65.654 103.075 65.066 103.819 64.658C104.563 64.238 105.397 64.028 106.321 64.028C107.245 64.028 108.079 64.238 108.823 64.658C109.579 65.066 110.167 65.654 110.587 66.422C111.019 67.178 111.235 68.066 111.235 69.086C111.235 70.094 111.019 70.982 110.587 71.75C110.155 72.518 109.561 73.112 108.805 73.532C108.049 73.94 107.209 74.144 106.285 74.144ZM106.285 73.046C106.933 73.046 107.533 72.902 108.085 72.614C108.637 72.314 109.081 71.87 109.417 71.282C109.765 70.682 109.939 69.95 109.939 69.086C109.939 68.222 109.771 67.496 109.435 66.908C109.099 66.308 108.655 65.864 108.103 65.576C107.551 65.276 106.951 65.126 106.303 65.126C105.655 65.126 105.055 65.276 104.503 65.576C103.951 65.864 103.507 66.308 103.171 66.908C102.847 67.496 102.685 68.222 102.685 69.086C102.685 69.95 102.847 70.682 103.171 71.282C103.507 71.87 103.945 72.314 104.485 72.614C105.037 72.902 105.637 73.046 106.285 73.046ZM122.046 64.172V74H120.786V72.272C120.498 72.884 120.054 73.352 119.454 73.676C118.854 74 118.182 74.162 117.438 74.162C116.262 74.162 115.302 73.802 114.558 73.082C113.814 72.35 113.442 71.294 113.442 69.914V64.172H114.684V69.77C114.684 70.838 114.948 71.654 115.476 72.218C116.016 72.782 116.748 73.064 117.672 73.064C118.62 73.064 119.376 72.764 119.94 72.164C120.504 71.564 120.786 70.682 120.786 69.518V64.172H122.046ZM129.044 64.028C129.968 64.028 130.772 64.244 131.456 64.676C132.14 65.108 132.632 65.654 132.932 66.314V64.172H134.192V74.252C134.192 75.152 133.994 75.95 133.598 76.646C133.214 77.342 132.674 77.876 131.978 78.248C131.282 78.632 130.49 78.824 129.602 78.824C128.342 78.824 127.292 78.524 126.452 77.924C125.624 77.324 125.108 76.508 124.904 75.476H126.146C126.362 76.16 126.77 76.706 127.37 77.114C127.982 77.522 128.726 77.726 129.602 77.726C130.238 77.726 130.808 77.588 131.312 77.312C131.816 77.048 132.212 76.652 132.5 76.124C132.788 75.596 132.932 74.972 132.932 74.252V71.822C132.62 72.494 132.122 73.052 131.438 73.496C130.766 73.928 129.968 74.144 129.044 74.144C128.144 74.144 127.334 73.934 126.614 73.514C125.906 73.094 125.348 72.5 124.94 71.732C124.544 70.964 124.346 70.076 124.346 69.068C124.346 68.06 124.544 67.178 124.94 66.422C125.348 65.654 125.906 65.066 126.614 64.658C127.334 64.238 128.144 64.028 129.044 64.028ZM132.932 69.086C132.932 68.294 132.77 67.598 132.446 66.998C132.122 66.398 131.678 65.936 131.114 65.612C130.562 65.288 129.95 65.126 129.278 65.126C128.582 65.126 127.958 65.282 127.406 65.594C126.854 65.906 126.416 66.362 126.092 66.962C125.78 67.55 125.624 68.252 125.624 69.068C125.624 69.872 125.78 70.58 126.092 71.192C126.416 71.792 126.854 72.254 127.406 72.578C127.958 72.89 128.582 73.046 129.278 73.046C129.95 73.046 130.562 72.884 131.114 72.56C131.678 72.236 132.122 71.774 132.446 71.174C132.77 70.574 132.932 69.878 132.932 69.086ZM141.749 63.992C142.493 63.992 143.159 64.148 143.747 64.46C144.347 64.772 144.815 65.252 145.151 65.9C145.499 66.536 145.673 67.316 145.673 68.24V74H144.431V68.384C144.431 67.316 144.161 66.5 143.621 65.936C143.093 65.372 142.367 65.09 141.443 65.09C140.495 65.09 139.739 65.39 139.175 65.99C138.611 66.59 138.329 67.472 138.329 68.636V74H137.069V60.68H138.329V65.846C138.641 65.258 139.097 64.802 139.697 64.478C140.309 64.154 140.993 63.992 141.749 63.992ZM150.098 65.234V71.336C150.098 71.936 150.212 72.35 150.44 72.578C150.668 72.806 151.07 72.92 151.646 72.92H152.798V74H151.448C150.56 74 149.9 73.796 149.468 73.388C149.036 72.968 148.82 72.284 148.82 71.336V65.234H147.452V64.172H148.82V61.706H150.098V64.172H152.798V65.234H150.098ZM158.26 74.144C157.132 74.144 156.208 73.886 155.488 73.37C154.78 72.842 154.384 72.128 154.3 71.228H155.596C155.656 71.78 155.914 72.23 156.37 72.578C156.838 72.914 157.462 73.082 158.242 73.082C158.926 73.082 159.46 72.92 159.844 72.596C160.24 72.272 160.438 71.87 160.438 71.39C160.438 71.054 160.33 70.778 160.114 70.562C159.898 70.346 159.622 70.178 159.286 70.058C158.962 69.926 158.518 69.788 157.954 69.644C157.222 69.452 156.628 69.26 156.172 69.068C155.716 68.876 155.326 68.594 155.002 68.222C154.69 67.838 154.534 67.328 154.534 66.692C154.534 66.212 154.678 65.768 154.966 65.36C155.254 64.952 155.662 64.628 156.19 64.388C156.718 64.148 157.318 64.028 157.99 64.028C159.046 64.028 159.898 64.298 160.546 64.838C161.194 65.366 161.542 66.098 161.59 67.034H160.33C160.294 66.458 160.066 65.996 159.646 65.648C159.238 65.288 158.674 65.108 157.954 65.108C157.318 65.108 156.802 65.258 156.406 65.558C156.01 65.858 155.812 66.23 155.812 66.674C155.812 67.058 155.926 67.376 156.154 67.628C156.394 67.868 156.688 68.06 157.036 68.204C157.384 68.336 157.852 68.486 158.44 68.654C159.148 68.846 159.712 69.032 160.132 69.212C160.552 69.392 160.912 69.656 161.212 70.004C161.512 70.352 161.668 70.814 161.68 71.39C161.68 71.918 161.536 72.392 161.248 72.812C160.96 73.22 160.558 73.544 160.042 73.784C159.526 74.024 158.932 74.144 158.26 74.144Z" fill="#FFFAFA"/>
</svg>
